<svg xmlns:xlink="http://www.w3.org/1999/xlink" xmlns="http://www.w3.org/2000/svg" fill="none" version="1.1" width="30"
     height="15" viewBox="0 0 136.04373168945312 59.8125">
    <g>
        <g>
            <path d="M8.218756103515625,18.03125Q8.218756103515625,19.90625,8.812456103515625,20.31245Q9.406256103515624,20.71875,11.249956103515625,20.71875L11.999956103515625,20.71875L12.249956103515625,20.68745L13.249956103515625,20.65625L14.781256103515624,20.53125Q17.843756103515624,20.53125,20.281256103515624,18.09375Q22.062456103515625,16.31245,22.062456103515625,13.125050000000002L22.062456103515625,12.53125Q22.062456103515625,9.187449999999998,19.812456103515625,7.500050000000002Q17.562456103515625,5.812449999999998,13.718756103515624,5.812449999999998L12.437456103515625,5.812449999999998Q9.187456103515625,5.812449999999998,8.718756103515625,6.687449999999998Q8.249956103515625,7.562449999999998,8.249956103515625,13.84375L8.249956103515625,14.375050000000002L8.218756103515625,15.437449999999998L8.218756103515625,18.03125ZM8.218756103515625,37.71875Q8.218756103515625,37.71875,8.281256103515625,39.50005Q8.281256103515625,41.12505,12.437456103515625,41.12505L14.843756103515624,41.12505Q19.374956103515625,41.12505,21.890656103515624,38.98435Q24.406256103515624,36.84375,24.406256103515624,33.37505L24.406256103515624,32.09375Q24.406256103515624,28.46875,21.812456103515625,26.43745Q19.218756103515624,24.40625,15.218756103515624,24.40625L12.281256103515624,24.40625Q9.906256103515624,24.40625,9.109356103515625,24.87505Q8.312456103515625,25.34375,8.312456103515625,26.84375Q8.187456103515625,27.96875,8.187456103515625,28.40625L8.187456103515625,29.15625L8.156256103515625,30.03125L8.156256103515625,36.28125L8.187456103515625,36.56245L8.218756103515625,37.71875ZM14.437456103515625,1.71875Q21.406256103515624,1.71875,24.984356103515626,4.484349999999999Q28.562456103515622,7.250050000000002,28.562456103515622,12.10935Q28.562456103515622,16.96875,25.249956103515625,20.18745Q23.468756103515624,21.90625,23.468756103515624,22.04685Q23.468756103515624,22.18745,24.218756103515624,22.62505L24.812456103515625,22.93745Q27.718756103515624,24.43745,29.437456103515622,26.95315Q31.156256103515624,29.46875,31.156256103515624,32.84375L31.156256103515624,33.62505Q31.124956103515622,36.71875,29.687456103515622,39.15625Q26.999956103515622,43.68745,20.781256103515624,45.06245Q17.624956103515625,45.75005,13.187456103515625,45.75005L10.218756103515624,45.75005L9.468756103515624,45.71875Q3.2187461035156257,45.71875,1.6249961035156257,45.31245Q0.09374610351562485,44.90625,0.09374610351562485,43.53125Q0.09374610351562485,43.09375,0.7499961035156248,41.40625Q1.4062461035156257,39.71875,1.4062461035156257,34.46875L1.4062461035156257,13.562449999999998Q1.4062461035156257,8.34375,0.7031261035156247,6.390650000000001Q-0.00000389648437515433,4.437449999999998,-0.00000389648437515433,4.250050000000002L-0.00000389648437515433,3.78125Q-0.00000389648437515433,2.7500500000000017,1.4843761035156255,2.328150000000001Q2.9687461035156257,1.90625,6.9374561035156255,1.90625L7.6874561035156255,1.8750500000000017Q8.437456103515625,1.84375,9.156256103515625,1.84375L10.656256103515624,1.78125L14.437456103515625,1.71875ZM45.46245610351563,2.46875Q45.46245610351563,0.00004999999999988347,49.52495610351563,0.00004999999999988347L50.08745610351563,0.00004999999999988347Q52.99375610351562,0.00004999999999988347,53.36875610351562,2.40625L53.36875610351562,9.187449999999998L53.30625610351562,11.53125L53.30625610351562,12.687449999999998L53.21245610351563,16.25005L53.21245610351563,17.40625L53.18125610351562,18.03125Q53.18125610351562,18.62505,53.18125610351562,19.21875L53.14995610351563,19.81245Q53.14995610351563,20.40625,53.14995610351563,21.00005L53.11875610351562,21.59375L53.11875610351562,24.53125L53.21245610351563,28.53125Q53.24375610351562,29.09375,53.24375610351562,31.37505Q53.24375610351562,33.65625,53.85315610351562,36.23435Q54.46245610351563,38.81245,55.39995610351563,40.32815Q56.33745610351563,41.84375,56.33745610351563,42.90625Q56.33745610351563,43.96875,55.04065610351562,44.78125Q53.74375610351562,45.59375,51.30625610351562,45.59375L50.21245610351563,45.59375Q45.80625610351562,45.59375,45.80625610351562,42.09375Q45.80625610351562,41.84375,46.05625610351562,40.46875Q46.30625610351562,39.09375,46.33745610351563,35.43745L46.52495610351563,27.96875L46.55625610351562,27.37505Q46.55625610351562,26.78125,46.55625610351562,26.18745L46.58745610351563,25.00005Q46.58745610351563,24.40625,46.58745610351563,23.81245L46.61875610351562,23.21875Q46.61875610351562,22.62505,46.61875610351562,22.03125L46.64995610351563,20.84375Q46.64995610351563,20.25005,46.64995610351563,19.65625L46.68125610351562,18.46875L46.68125610351562,17.25005L46.71245610351563,16.06245L46.71245610351563,10.187449999999998Q46.71245610351563,6.625050000000002,46.08745610351563,4.812449999999998Q45.46245610351563,3.0000500000000017,45.46245610351563,2.46875ZM82.04995610351563,42.03125L82.67495610351563,42.03125Q85.83125610351563,42.03125,87.86245610351563,39.25005Q89.89375610351563,36.46875,89.89375610351563,32.21875L89.95625610351563,31.53125L89.98745610351563,30.46875L89.98745610351563,29.06245Q89.98745610351563,24.40625,88.09685610351562,21.39065Q86.20625610351563,18.37505,83.04995610351563,18.37505L82.42495610351563,18.37505Q79.33125610351563,18.37505,77.22185610351562,21.43745Q75.11245610351563,24.50005,75.11245610351563,29.56245L75.11245610351563,31.68745Q75.17495610351563,32.43745,75.17495610351563,32.71875Q75.17495610351563,36.28125,77.14375610351563,39.15625Q79.11245610351563,42.03125,82.04995610351563,42.03125ZM97.05025610351562,29.50005L97.05025610351562,30.53125Q97.05025610351562,33.31245,96.14325610351563,36.25005Q94.30025610351562,42.21875,88.89375610351563,44.81245Q85.76875610351563,46.31245,82.70625610351563,46.31245L81.64375610351563,46.31245Q78.73745610351563,46.31245,76.23745610351563,45.12505Q71.26875610351563,42.75005,69.64375610351563,37.25005Q68.76875610351563,34.34375,68.76875610351563,31.34375L68.76875610351563,29.75005Q68.76875610351563,26.81245,69.67495610351563,23.87505Q71.45625610351563,18.06245,76.73745610351563,15.562449999999998Q79.45625610351563,14.250050000000002,82.29995610351563,14.250050000000002L83.86245610351563,14.250050000000002Q86.54995610351563,14.250050000000002,89.17495610351563,15.40625Q94.42525610351562,17.71875,96.23725610351562,23.65625Q97.05025610351562,26.28125,97.05025610351562,29.50005ZM115.82525610351563,30.03125L115.82525610351563,31.34375Q115.82525610351563,35.78125,117.40325610351563,38.40625Q118.98125610351562,41.03125,121.73125610351562,41.03125L122.82525610351561,41.03125Q126.26225610351563,41.03125,127.98125610351562,38.18745Q129.26225610351563,36.06245,129.26225610351563,31.84375Q129.3252561035156,31.21875,129.3252561035156,30.87505L129.38725610351563,29.25005L129.38725610351563,27.62505L129.35625610351562,27.31245L129.3252561035156,26.37505L129.26225610351563,25.15625Q129.26225610351563,22.56245,127.95025610351561,21.12505Q126.63725610351563,19.68745,124.54425610351564,19.68745L123.73125610351562,19.68745Q120.23125610351562,19.68745,118.02825610351563,22.48435Q115.82525610351563,25.28125,115.82525610351563,30.03125ZM127.48125610351562,58.87505Q124.88725610351563,59.81245,121.55925610351562,59.81245Q118.23125610351562,59.81245,115.54325610351563,58.59375Q112.85625610351562,57.37505,112.85625610351562,55.84375Q112.85625610351562,53.87505,115.82525610351563,53.87505Q116.82525610351563,53.87505,118.49725610351562,54.171850000000006Q120.16825610351563,54.46875,121.35625610351562,54.46875Q125.20025610351561,54.46875,127.54425610351564,52.328149999999994Q129.88725610351563,50.18745,129.88725610351563,46.34375Q129.88725610351563,44.78125,128.54425610351564,44.78125Q128.3252561035156,44.78125,127.01225610351563,44.96875Q125.70025610351561,45.15625,123.26225610351563,45.15625Q114.70025610351563,45.15625,111.66825610351563,36.81245Q110.48125610351562,33.53125,110.48125610351562,30.25005L110.48125610351562,29.40625Q110.48125610351562,26.00005,111.60625610351562,23.21875Q114.79325610351563,15.312449999999998,123.51225610351563,15.312449999999998Q125.66925610351564,15.312449999999998,128.0752561035156,16.15625Q130.48125610351562,17.00005,131.85625610351562,17.00005L132.79425610351564,16.93745Q134.2002561035156,16.93745,135.12225610351564,18.04685Q136.04425610351564,19.15625,136.04425610351564,21.25005L136.04425610351564,22.84375Q136.04425610351564,23.43745,135.5752561035156,29.76565Q135.10625610351562,36.09375,135.10625610351562,39.37505L135.41925610351564,46.59375Q135.41925610351564,56.00005,127.48125610351562,58.87505Z"
                  fill="#1D5F07" fill-opacity="1"/>
        </g>
    </g>
</svg>