<svg xmlns:xlink="http://www.w3.org/1999/xlink" xmlns="http://www.w3.org/2000/svg" fill="none" version="1.1" width="30"
     height="10" viewBox="0 0 115.64804077148438 48.32000732421875">
    <g>
        <g>
            <path d="M22.976012451171876,31.679994140625L21.888012451171875,48.319994140625L13.760012451171875,48.319994140625L12.736012451171874,32.063994140625L0.000012451171876648459,3.1999941406250016L9.344012451171874,-0.000005859375001193712L17.728012451171878,23.935994140625L26.24001245117187,-0.000005859375001193712L35.52001245117187,3.1999941406250016L22.976012451171876,31.679994140625ZM78.91201245117188,21.119994140625003L79.23201245117187,21.119994140625003L77.63201245117187,48.319994140625L49.21601245117188,48.319994140625L47.61601245117187,41.151994140625L69.88801245117187,41.151994140625L69.88801245117187,28.223994140625003L48.70401245117188,28.223994140625003L47.36001245117187,1.0239941406249997L79.80801245117188,1.0239941406249997L78.65601245117188,8.191994140624999L57.79201245117187,8.191994140624999L57.21601245117188,21.055994140625003L78.91201245117188,21.055994140625003L78.91201245117188,21.119994140625003ZM115.20001245117189,8.191994140624999L109.56801245117188,8.191994140624999L108.16001245117188,48.319994140625L94.14401245117188,48.319994140625L95.42401245117188,41.215994140625L100.86401245117187,41.215994140625L99.26401245117188,8.191994140624999L93.50401245117187,8.191994140624999L92.60801245117187,1.0239941406249997L115.64801245117187,1.0239941406249997L115.20001245117189,8.191994140624999Z"
                  fill="#000000" fill-opacity="1"/>
        </g>
    </g>
</svg>