<svg xmlns:xlink="http://www.w3.org/1999/xlink" xmlns="http://www.w3.org/2000/svg" fill="none" version="1.1" width="30"
     height="15" viewBox="0 0 107.61251831054688 48.0625">
    <g>
        <g>
            <path d="M26.062518896484377,2.71875Q27.375018896484377,0.6874499999999983,30.812518896484377,0.6874499999999983Q34.25001889648438,0.6874499999999983,34.25001889648438,2.3750500000000017Q34.25001889648438,3.34375,32.43751889648438,5.90625Q30.625018896484377,8.46875,28.656218896484376,12.500050000000002Q22.656218896484376,24.71875,22.500018896484377,25.12505Q20.250018896484377,30.75005,20.250018896484377,36.96875Q20.250018896484377,37.90625,20.687518896484377,39.48435Q21.125018896484377,41.06245,21.125018896484377,41.50005Q21.125018896484377,43.03125,19.875018896484377,43.87505Q18.625018896484377,44.71875,16.328118896484376,44.71875Q14.031218896484376,44.71875,12.937518896484377,43.92185Q11.843718896484376,43.12505,11.843718896484376,41.37505Q11.843718896484376,40.81245,12.453118896484376,39.21875Q13.062518896484377,37.62505,13.453118896484376,36.26565Q13.843718896484376,34.90625,13.843718896484376,31.37505Q13.843718896484376,27.84375,12.000018896484377,24.00005Q11.718718896484376,23.43745,7.828118896484376,16.23435Q3.9375188964843737,9.03125,3.0000188964843737,7.78125Q0.000018896484373698286,3.84375,0.000018896484373698286,2.96875Q0.000018896484373698286,1.3750500000000017,4.078118896484376,1.3750500000000017Q8.156218896484376,1.3750500000000017,9.375018896484374,3.4374499999999983Q9.625018896484374,3.8750500000000017,10.000018896484374,5.515650000000001Q10.375018896484374,7.15625,13.625018896484377,13.625050000000002Q16.875018896484377,20.09375,17.562518896484377,20.09375Q18.843718896484376,20.09375,23.312518896484377,10.96875Q24.593718896484376,8.34375,25.187518896484377,5.750050000000002Q25.781218896484376,3.15625,26.062518896484377,2.71875ZM60.08751889648437,44.75005Q57.21251889648437,44.75005,53.74371889648438,44.01565Q50.27501889648437,43.28125,48.86871889648438,42.45315Q47.46251889648437,41.62505,46.665618896484375,40.10935Q45.86871889648438,38.59375,45.86871889648438,37.20315Q45.86871889648438,35.81245,46.52501889648437,35.04685Q47.18121889648438,34.28125,47.96251889648437,34.28125Q48.74371889648438,34.28125,50.88441889648438,36.06245Q53.02501889648437,37.84375,55.165618896484375,38.75005Q57.30621889648438,39.65625,60.49371889648438,39.65625Q63.68121889648438,39.65625,65.68121889648438,37.96875Q67.68121889648438,36.28125,67.68121889648438,33.18745Q67.68121889648438,30.09375,64.05621889648438,27.59375Q63.05621889648438,26.90625,57.43121889648438,24.23435Q51.80621889648438,21.56245,49.99371889648438,19.67185Q48.18121889648438,17.78125,47.38441889648438,15.82815Q46.58751889648437,13.875050000000002,46.58751889648437,11.15625Q46.58751889648437,6.21875,50.74371889648438,2.96875Q54.46251889648437,0.00005000000000165983,61.90001889648437,0.00005000000000165983Q66.46251889648437,0.00005000000000165983,69.55621889648438,1.34375Q70.96251889648437,1.96875,71.91561889648438,3.453150000000001Q72.86871889648438,4.937449999999998,72.86871889648438,6.21875Q72.86871889648438,9.21875,70.90001889648437,9.21875Q70.33751889648437,9.21875,67.05621889648438,7.062449999999998Q63.77501889648437,4.90625,60.478118896484375,4.90625Q57.18121889648438,4.90625,55.165618896484375,6.453150000000001Q53.15001889648437,8.000050000000002,53.15001889648437,10.71875Q53.15001889648437,13.437449999999998,55.80621889648438,15.562449999999998Q57.24371889648438,16.71875,63.08751889648437,19.35935Q68.93121889648438,22.00005,71.07181889648437,24.14065Q73.21251889648437,26.28125,73.91561889648438,28.23435Q74.61871889648438,30.18745,74.61871889648438,32.75005Q74.61871889648438,35.31245,73.52501889648437,37.56245Q71.33751889648437,42.15625,65.74371889648438,43.90625Q63.08751889648437,44.75005,60.30621889648438,44.75005Q60.18121889648438,44.75005,60.08751889648437,44.75005ZM93.11261889648438,48.06245L92.42461889648438,48.06245Q89.64361889648437,48.06245,87.54961889648438,46.98435Q85.45661889648437,45.90625,85.45661889648437,44.31245L85.45661889648437,43.71875Q85.45661889648437,42.75005,86.31561889648438,41.89065Q87.17461889648438,41.03125,88.89361889648437,41.03125L91.86261889648438,41.25005Q93.69861889648438,41.25005,95.19161889648437,39.60935Q96.68561889648437,37.96875,97.55661889648438,35.50005Q99.17461889648438,30.87505,99.17461889648438,20.93745L99.17461889648438,20.18745Q99.17461889648438,19.43745,99.17461889648438,16.32815Q99.17461889648438,13.21875,98.57561889648437,10.79685Q97.97661889648438,8.375050000000002,96.90361889648437,6.500050000000002Q95.83161889648437,4.625050000000002,95.83161889648437,3.5000500000000017Q95.83161889648437,2.3750500000000017,97.50361889648437,1.3750500000000017Q99.17461889648438,0.37505000000000166,102.29961889648438,0.37505000000000166L102.98761889648438,0.37505000000000166Q104.83161889648437,0.37505000000000166,106.22161889648437,1.3593499999999992Q107.61261889648438,2.34375,107.61261889648438,3.96875Q107.61261889648438,4.562449999999998,107.34661889648437,5.90625Q107.08161889648437,7.250050000000002,106.75361889648437,10.82815Q106.42461889648438,14.40625,106.42461889648438,17.56245L106.36261889648438,19.06245Q106.33161889648437,19.81245,106.33161889648437,20.56245L106.26861889648437,22.06245L106.17461889648438,26.62505Q106.17461889648438,37.59375,103.14361889648437,42.34375Q101.45661889648437,44.96875,98.73761889648438,46.51565Q96.01861889648437,48.06245,93.11261889648438,48.06245Z"
                  fill="#E71D1D" fill-opacity="1"/>
        </g>
    </g>
</svg>